# xmcd
#
# Track frame offsets:
#	150
#	17743
#	37138
#	52390
#	69389
#	88371
#	106695
#	110441
#	126949
#	141582
#	160171
#	175791
#	204705
#
# Disc length: 3314 seconds
#
# Revision: 1
# Processed by: cddbd v1.5.2PL0 Copyright (c) Steve Scherf et al.
# Submitted via: EasyCDDAExtractor 9.1.1.5
#
DISCID=c30cf00d
DTITLE=Keni Thomas - Gunslinger
DYEAR=2007
DGENRE=Country
TTITLE0=Shreveport to LA
TTITLE1=Summertown
TTITLE2=Not Ready 4 Love
TTITLE3=Everything
TTITLE4=Billboards 4 Jesus
TTITLE5=Free 
TTITLE6=Side 2
TTITLE7=Gunslinger
TTITLE8=Out of Nowhere
TTITLE9=That 1 Is My Dad 
TTITLE10=Blame It On Me 
TTITLE11=In God's Hands
TTITLE12=pdf
EXTD=
EXTT0=
EXTT1=
EXTT2=
EXTT3=
EXTT4=
EXTT5=
EXTT6=
EXTT7=
EXTT8=
EXTT9=
EXTT10=
EXTT11=
EXTT12=
PLAYORDER=
